<?xml version="1.0" encoding="UTF-8" ?>
<!DOCTYPE svg PUBLIC "-//W3C//DTD SVG 1.1//EN" "http://www.w3.org/Graphics/SVG/1.1/DTD/svg11.dtd">
<svg width="605pt" height="118pt" viewBox="0 0 605 118" version="1.1" xmlns="http://www.w3.org/2000/svg">
<g id="#ffffffff">
<path fill="#ffffff" opacity="1.00" d=" M 28.30 39.35 C 40.39 25.38 62.98 24.21 78.01 33.95 C 77.19 39.27 76.11 44.56 75.00 49.83 C 67.69 45.05 58.25 42.04 49.78 45.54 C 38.51 49.43 34.90 65.55 42.57 74.34 C 45.73 77.87 50.44 79.48 55.05 79.96 C 60.29 80.15 65.33 78.36 70.12 76.41 C 69.74 81.66 68.72 86.85 67.67 92.00 C 67.40 93.80 65.24 93.97 63.87 94.51 C 53.10 97.49 40.63 96.33 31.57 89.39 C 25.78 85.09 22.08 78.41 20.65 71.41 C 18.59 60.33 20.70 47.97 28.30 39.35 Z" />
<path fill="#ffffff" opacity="1.00" d=" M 102.28 31.45 C 109.33 31.38 116.38 31.42 123.43 31.43 C 127.90 52.27 132.40 73.10 136.70 93.97 C 131.17 94.02 125.65 94.02 120.13 93.96 C 119.30 90.41 118.60 86.82 117.59 83.31 C 110.44 82.54 103.15 83.27 95.95 82.96 C 93.87 86.37 92.67 90.22 90.70 93.69 C 84.34 94.42 77.83 93.81 71.41 93.98 C 78.14 79.65 85.55 65.64 92.48 51.41 C 95.52 44.65 99.04 38.12 102.28 31.45 M 102.68 69.21 C 106.93 69.21 111.17 69.20 115.42 69.22 C 113.95 62.79 112.49 56.36 111.14 49.90 C 108.45 56.39 105.53 62.78 102.68 69.21 Z" />
<path fill="#ffffff" opacity="1.00" d=" M 149.97 31.43 C 156.08 31.39 162.19 31.42 168.30 31.41 C 175.10 43.08 181.68 54.87 188.38 66.58 L 188.66 66.67 C 190.23 55.17 191.91 43.68 193.64 32.20 L 194.18 31.68 C 199.81 31.48 205.46 31.67 211.09 31.61 C 208.56 52.45 205.14 73.18 202.42 94.00 C 196.71 94.01 191.00 93.99 185.30 94.01 C 177.93 81.36 170.89 68.51 163.66 55.78 C 161.81 68.52 160.15 81.28 158.26 94.01 C 152.63 93.98 147.00 94.03 141.37 93.97 C 141.68 88.00 142.93 82.13 143.62 76.20 C 145.79 61.29 147.64 46.33 149.97 31.43 Z" />
<path fill="#ffffff" opacity="1.00" d=" M 231.89 33.15 C 232.23 31.81 233.62 31.16 234.90 31.39 C 240.07 31.41 245.23 31.42 250.40 31.41 C 258.45 52.32 266.37 73.28 274.09 94.30 C 268.47 94.41 262.84 94.50 257.22 94.32 C 254.39 91.53 254.19 86.88 252.22 83.41 C 244.96 83.38 237.69 83.39 230.43 83.41 C 228.86 86.98 227.42 90.62 226.08 94.28 C 220.22 94.36 214.33 94.67 208.48 94.13 C 216.29 73.80 224.11 53.48 231.89 33.15 M 241.45 51.81 C 239.31 58.08 237.03 64.32 235.05 70.65 C 239.28 70.58 243.52 70.60 247.76 70.62 C 245.67 64.34 243.51 58.09 241.45 51.81 Z" />
<path fill="#ffffff" opacity="1.00" d=" M 277.60 30.74 C 283.92 30.63 290.29 30.31 296.60 30.89 C 296.57 46.66 296.59 62.43 296.59 78.19 C 302.58 78.26 308.56 78.12 314.55 78.29 C 314.63 83.57 314.54 88.85 314.62 94.14 C 302.31 94.67 289.95 94.36 277.62 94.29 C 277.59 73.11 277.62 51.92 277.60 30.74 Z" />
<path fill="#ffffff" opacity="1.00" d=" M 383.00 32.61 C 391.67 32.62 400.33 32.59 409.00 32.61 C 415.15 32.74 421.81 34.19 426.05 39.01 C 431.96 45.39 432.22 55.03 430.06 63.02 C 428.40 68.46 423.91 72.83 418.35 74.14 C 412.28 75.55 405.96 75.40 399.77 75.39 C 399.81 82.26 399.78 89.13 399.79 96.00 C 394.19 96.00 388.60 96.00 383.00 96.00 C 383.00 88.10 383.01 80.21 382.99 72.31 C 388.19 69.06 393.58 66.12 398.83 62.97 C 402.24 60.44 406.90 62.56 410.46 60.47 C 414.12 58.25 414.55 52.90 412.55 49.46 C 409.66 45.25 404.04 46.59 399.72 46.40 C 399.76 47.26 399.85 48.97 399.89 49.83 C 394.26 46.56 388.67 43.23 383.01 40.03 C 383.00 37.56 382.99 35.08 383.00 32.61 Z" />
<path fill="#ffffff" opacity="1.00" d=" M 439.51 33.00 C 444.97 33.01 450.43 32.97 455.89 33.03 C 453.91 49.36 451.91 65.69 449.83 82.00 C 456.01 81.99 462.20 82.02 468.38 81.98 C 467.70 86.64 467.18 91.32 466.62 96.00 C 455.05 96.00 443.49 96.00 431.92 96.00 C 434.27 74.98 437.06 54.01 439.51 33.00 Z" />
<path fill="#ffffff" opacity="1.00" d=" M 471.02 95.94 C 479.26 74.85 487.25 53.67 495.41 32.56 C 501.40 32.64 507.39 32.61 513.38 32.58 C 521.23 53.75 529.46 74.79 537.20 96.00 C 531.20 95.95 525.21 96.11 519.23 95.90 C 517.98 92.22 516.60 88.60 515.16 85.00 C 507.80 85.00 500.44 85.01 493.09 84.99 C 491.66 88.67 490.31 92.37 488.78 96.00 C 482.86 95.97 476.94 96.07 471.02 95.94 M 497.60 72.43 C 501.97 72.40 506.34 72.39 510.71 72.45 C 508.51 66.01 506.38 59.55 504.24 53.09 C 502.02 59.54 499.98 66.04 497.60 72.43 Z" />
<path fill="#ffffff" opacity="1.00" d=" M 534.39 32.81 C 540.43 32.37 546.49 32.73 552.54 32.58 C 556.41 39.68 560.20 46.82 564.04 53.94 C 567.75 46.84 571.52 39.78 575.16 32.64 C 581.18 32.58 587.21 32.59 593.23 32.63 C 581.67 53.82 569.90 74.88 558.22 96.00 C 552.30 96.00 546.38 95.99 540.46 96.01 C 545.55 87.10 550.36 78.03 555.39 69.09 C 548.31 57.04 541.36 44.92 534.39 32.81 Z" />
</g>
<g id="#000000ff">
<path fill="#000000" opacity="1.00" d=" M 318.59 2.34 C 324.73 5.85 330.68 9.74 336.98 12.91 C 425.99 13.12 515.01 12.94 604.03 13.00 C 604.03 47.00 604.04 81.00 604.03 115.00 C 403.01 115.00 201.99 115.00 0.97 115.00 C 0.96 81.00 0.97 47.00 0.97 13.00 C 106.84 12.99 212.72 13.01 318.59 12.99 C 318.58 9.44 318.58 5.89 318.59 2.34 M 324.12 12.19 C 324.17 41.42 324.26 70.66 324.08 99.90 C 348.40 85.95 372.50 71.59 396.84 57.68 C 397.51 57.11 398.91 56.94 398.83 55.82 C 373.95 41.23 349.01 26.76 324.12 12.19 M 28.30 39.35 C 20.70 47.97 18.59 60.33 20.65 71.41 C 22.08 78.41 25.78 85.09 31.57 89.39 C 40.63 96.33 53.10 97.49 63.87 94.51 C 65.24 93.97 67.40 93.80 67.67 92.00 C 68.72 86.85 69.74 81.66 70.12 76.41 C 65.33 78.36 60.29 80.15 55.05 79.96 C 50.44 79.48 45.73 77.87 42.57 74.34 C 34.90 65.55 38.51 49.43 49.78 45.54 C 58.25 42.04 67.69 45.05 75.00 49.83 C 76.11 44.56 77.19 39.27 78.01 33.95 C 62.98 24.21 40.39 25.38 28.30 39.35 M 102.28 31.45 C 99.04 38.12 95.52 44.65 92.48 51.41 C 85.55 65.64 78.14 79.65 71.41 93.98 C 77.83 93.81 84.34 94.42 90.70 93.69 C 92.67 90.22 93.87 86.37 95.95 82.96 C 103.15 83.27 110.44 82.54 117.59 83.31 C 118.60 86.82 119.30 90.41 120.13 93.96 C 125.65 94.02 131.17 94.02 136.70 93.97 C 132.40 73.10 127.90 52.27 123.43 31.43 C 116.38 31.42 109.33 31.38 102.28 31.45 M 149.97 31.43 C 147.64 46.33 145.79 61.29 143.62 76.20 C 142.93 82.13 141.68 88.00 141.37 93.97 C 147.00 94.03 152.63 93.98 158.26 94.01 C 160.15 81.28 161.81 68.52 163.66 55.78 C 170.89 68.51 177.93 81.36 185.30 94.01 C 191.00 93.99 196.71 94.01 202.42 94.00 C 205.14 73.18 208.56 52.45 211.09 31.61 C 205.46 31.67 199.81 31.48 194.18 31.68 L 193.64 32.20 C 191.91 43.68 190.23 55.17 188.66 66.67 L 188.38 66.58 C 181.68 54.87 175.10 43.08 168.30 31.41 C 162.19 31.42 156.08 31.39 149.97 31.43 M 231.89 33.15 C 224.11 53.48 216.29 73.80 208.48 94.13 C 214.33 94.67 220.22 94.36 226.08 94.28 C 227.42 90.62 228.86 86.98 230.43 83.41 C 237.69 83.39 244.96 83.38 252.22 83.41 C 254.19 86.88 254.39 91.53 257.22 94.32 C 262.84 94.50 268.47 94.41 274.09 94.30 C 266.37 73.28 258.45 52.32 250.40 31.41 C 245.23 31.42 240.07 31.41 234.90 31.39 C 233.62 31.16 232.23 31.81 231.89 33.15 M 277.60 30.74 C 277.62 51.92 277.59 73.11 277.62 94.29 C 289.95 94.36 302.31 94.67 314.62 94.14 C 314.54 88.85 314.63 83.57 314.55 78.29 C 308.56 78.12 302.58 78.26 296.59 78.19 C 296.59 62.43 296.57 46.66 296.60 30.89 C 290.29 30.31 283.92 30.63 277.60 30.74 M 383.00 32.61 C 382.99 35.08 383.00 37.56 383.01 40.03 C 388.67 43.23 394.26 46.56 399.89 49.83 C 399.85 48.97 399.76 47.26 399.72 46.40 C 404.04 46.59 409.66 45.25 412.55 49.46 C 414.55 52.90 414.12 58.25 410.46 60.47 C 406.90 62.56 402.24 60.44 398.83 62.97 C 393.58 66.12 388.19 69.06 382.99 72.31 C 383.01 80.21 383.00 88.10 383.00 96.00 C 388.60 96.00 394.19 96.00 399.79 96.00 C 399.78 89.13 399.81 82.26 399.77 75.39 C 405.96 75.40 412.28 75.55 418.35 74.14 C 423.91 72.83 428.40 68.46 430.06 63.02 C 432.22 55.03 431.96 45.39 426.05 39.01 C 421.81 34.19 415.15 32.74 409.00 32.61 C 400.33 32.59 391.67 32.62 383.00 32.61 M 439.51 33.00 C 437.06 54.01 434.27 74.98 431.92 96.00 C 443.49 96.00 455.05 96.00 466.62 96.00 C 467.18 91.32 467.70 86.64 468.38 81.98 C 462.20 82.02 456.01 81.99 449.83 82.00 C 451.91 65.69 453.91 49.36 455.89 33.03 C 450.43 32.97 444.97 33.01 439.51 33.00 M 471.02 95.94 C 476.94 96.07 482.86 95.97 488.78 96.00 C 490.31 92.37 491.66 88.67 493.09 84.99 C 500.44 85.01 507.80 85.00 515.16 85.00 C 516.60 88.60 517.98 92.22 519.23 95.90 C 525.21 96.11 531.20 95.95 537.20 96.00 C 529.46 74.79 521.23 53.75 513.38 32.58 C 507.39 32.61 501.40 32.64 495.41 32.56 C 487.25 53.67 479.26 74.85 471.02 95.94 M 534.39 32.81 C 541.36 44.92 548.31 57.04 555.39 69.09 C 550.36 78.03 545.55 87.10 540.46 96.01 C 546.38 95.99 552.30 96.00 558.22 96.00 C 569.90 74.88 581.67 53.82 593.23 32.63 C 587.21 32.59 581.18 32.58 575.16 32.64 C 571.52 39.78 567.75 46.84 564.04 53.94 C 560.20 46.82 556.41 39.68 552.54 32.58 C 546.49 32.73 540.43 32.37 534.39 32.81 Z" />
<path fill="#000000" opacity="1.00" d=" M 102.68 69.21 C 105.53 62.78 108.45 56.39 111.14 49.90 C 112.49 56.36 113.95 62.79 115.42 69.22 C 111.17 69.20 106.93 69.21 102.68 69.21 Z" />
<path fill="#000000" opacity="1.00" d=" M 241.45 51.81 C 243.51 58.09 245.67 64.34 247.76 70.62 C 243.52 70.60 239.28 70.58 235.05 70.65 C 237.03 64.32 239.31 58.08 241.45 51.81 Z" />
<path fill="#000000" opacity="1.00" d=" M 497.60 72.43 C 499.98 66.04 502.02 59.54 504.24 53.09 C 506.38 59.55 508.51 66.01 510.71 72.45 C 506.34 72.39 501.97 72.40 497.60 72.43 Z" />
</g>
<g id="#00aeefff">
<path fill="#00aeef" opacity="1.00" d=" M 324.12 12.19 C 349.01 26.76 373.95 41.23 398.83 55.82 C 398.91 56.94 397.51 57.11 396.84 57.68 C 372.50 71.59 348.40 85.95 324.08 99.90 C 324.26 70.66 324.17 41.42 324.12 12.19 Z" />
</g>
</svg>
